<svg width="27" height="22" viewBox="0 0 27 22" fill="none" xmlns="http://www.w3.org/2000/svg">
<path fill-rule="evenodd" clip-rule="evenodd" d="M0.028485 4.2357C-0.353357 1.27224 3.17574 -0.904021 6.29363 0.373292L23.8349 7.55722C27.1951 8.9323 27.1951 13.0664 23.8349 14.4415L6.29363 21.6267C3.17574 22.904 -0.351888 20.7278 0.028485 17.7643L0.733424 12.2691H12.6557C13.0452 12.2691 13.4188 12.1353 13.6942 11.8972C13.9696 11.6591 14.1243 11.3361 14.1243 10.9994C14.1243 10.6626 13.9696 10.3397 13.6942 10.1016C13.4188 9.86344 13.0452 9.72967 12.6557 9.72967H0.734892L0.028485 4.2357Z" fill="url(#paint0_linear_11_6)"/>
<defs>
<linearGradient id="paint0_linear_11_6" x1="26.355" y1="-4.55158e-06" x2="-2.92452" y2="5.0526" gradientUnits="userSpaceOnUse">
<stop stop-color="#04ACBB"/>
<stop offset="1" stop-color="#00BD78"/>
</linearGradient>
</defs>
</svg>
