<svg width="21" height="20" viewBox="0 0 21 20" fill="none" xmlns="http://www.w3.org/2000/svg">
<path d="M0.500001 9.99771C0.500503 7.80531 1.22148 5.67383 2.55198 3.93131C3.88248 2.18878 5.74876 0.931794 7.8636 0.353791C9.97843 -0.224213 12.2246 -0.0911964 14.2564 0.732369C16.2883 1.55593 17.9932 3.0244 19.1087 4.91178C20.2242 6.79915 20.6886 9.00083 20.4304 11.178C20.1721 13.3551 19.2055 15.387 17.6794 16.961C16.1532 18.5351 14.1521 19.5639 11.984 19.8893C9.81588 20.2146 7.60091 19.8184 5.68 18.7617L1.792 19.9457C1.61858 19.9985 1.43407 20.0032 1.25819 19.9593C1.08231 19.9153 0.921685 19.8244 0.793496 19.6962C0.665308 19.568 0.574377 19.4074 0.53043 19.2315C0.486484 19.0556 0.491175 18.8711 0.544001 18.6977L1.728 14.8037C0.921529 13.3303 0.499204 11.6774 0.500001 9.99771ZM6.5 8.99771C6.5 9.26292 6.60535 9.51728 6.79289 9.70481C6.98043 9.89235 7.23478 9.99771 7.5 9.99771H13.5C13.7652 9.99771 14.0196 9.89235 14.2071 9.70481C14.3946 9.51728 14.5 9.26292 14.5 8.99771C14.5 8.73249 14.3946 8.47814 14.2071 8.2906C14.0196 8.10307 13.7652 7.99771 13.5 7.99771H7.5C7.23478 7.99771 6.98043 8.10307 6.79289 8.2906C6.60535 8.47814 6.5 8.73249 6.5 8.99771ZM7.5 11.9977C7.23478 11.9977 6.98043 12.1031 6.79289 12.2906C6.60535 12.4781 6.5 12.7325 6.5 12.9977C6.5 13.2629 6.60535 13.5173 6.79289 13.7048C6.98043 13.8923 7.23478 13.9977 7.5 13.9977H11.5C11.7652 13.9977 12.0196 13.8923 12.2071 13.7048C12.3946 13.5173 12.5 13.2629 12.5 12.9977C12.5 12.7325 12.3946 12.4781 12.2071 12.2906C12.0196 12.1031 11.7652 11.9977 11.5 11.9977H7.5Z" fill="white"/>
</svg>
