<svg width="21" height="20" viewBox="0 0 21 20" fill="none" xmlns="http://www.w3.org/2000/svg">
<path fill-rule="evenodd" clip-rule="evenodd" d="M9.71337 0.325322C9.92202 0.117018 10.205 0 10.5 0C10.795 0 11.078 0.117018 11.2866 0.325322L17.9624 6.99207L20.1877 9.21432C20.3903 9.42388 20.5025 9.70455 20.5 9.99588C20.4974 10.2872 20.3804 10.5659 20.1741 10.7719C19.9678 10.9779 19.6888 11.0948 19.397 11.0973C19.1053 11.0998 18.8243 10.9878 18.6144 10.7854L18.2884 10.4599V17.7778C18.2884 18.3671 18.054 18.9324 17.6366 19.3491C17.2193 19.7659 16.6533 20 16.0632 20H12.7253C12.4302 20 12.1472 19.8829 11.9385 19.6746C11.7299 19.4662 11.6126 19.1836 11.6126 18.8889V15.5555H9.38737V18.8889C9.38737 19.1836 9.27015 19.4662 9.06149 19.6746C8.85283 19.8829 8.56983 20 8.27474 20H4.93685C4.34667 20 3.78067 19.7659 3.36335 19.3491C2.94603 18.9324 2.71159 18.3671 2.71159 17.7778V10.4599L2.38559 10.7854C2.17574 10.9878 1.89469 11.0998 1.60296 11.0973C1.31123 11.0948 1.03217 10.9779 0.825882 10.7719C0.619591 10.5659 0.502577 10.2872 0.500042 9.99588C0.497507 9.70455 0.609654 9.42388 0.812328 9.21432L3.03759 6.99207L9.71337 0.325322Z" fill="white"/>
</svg>
