<svg width="42" height="51" viewBox="0 0 42 51" fill="none" xmlns="http://www.w3.org/2000/svg">
<path d="M30.4011 26.0707V21.6361H33.6739L40.8793 16.6216C40.9846 16.5553 41.0703 16.4687 41.1293 16.3687C41.1884 16.2688 41.2192 16.1584 41.2192 16.0464V1.08711C41.2192 0.900302 41.1337 0.720946 40.981 0.587546C40.8284 0.454146 40.6208 0.377337 40.4029 0.373608L18.5125 0.000172666C18.3653 -0.00260825 18.2198 0.0282461 18.091 0.0895674C17.9623 0.150889 17.8549 0.240467 17.7799 0.349104L12.046 8.61788C11.7873 8.92219 11.983 9.60551 12.3203 12.814C10.0495 12.8078 9.77566 12.7271 9.41006 13.0734L0.366879 20.7202C0.00755611 20.9767 0 21.2282 0 21.2282L0.594958 36.9298H6.42539V51H27.8435L34.4891 47.0724C34.6035 47.0073 34.6973 46.9189 34.7622 46.8152C34.8271 46.7115 34.8611 46.5957 34.8611 46.478V30.4449C34.8611 30.2556 34.7733 30.0741 34.6171 29.9402C34.4609 29.8064 34.2491 29.7312 34.0282 29.7312H26.8781C29.4572 27.1865 30.4016 26.632 30.4011 26.0707ZM18.9643 1.43554L38.4609 1.76814L31.3814 8.17771H14.2878L18.9643 1.43554ZM2.1378 21.2282L10.3284 14.3024L12.4116 14.3457L12.8508 21.2282H2.1378ZM27.8435 49.1428V36.471L33.1953 32.5131V46.0952L27.8435 49.1428ZM32.4775 31.1586L25.7765 36.1142H19.6332L25.3942 31.1586H32.4775ZM28.7353 25.799L20.8914 33.3437L21.1801 21.6361H28.7353V25.799ZM33.7142 19.3583L33.9118 8.17771L39.5533 2.85558V15.6849L33.7142 19.3583Z" fill="url(#paint0_linear_617_614)"/>
<defs>
<linearGradient id="paint0_linear_617_614" x1="34.3747" y1="25.5" x2="12.4722" y2="25.5" gradientUnits="userSpaceOnUse">
<stop stop-color="#7F31FF"/>
<stop offset="1" stop-color="#2BB3FF"/>
</linearGradient>
</defs>
</svg>
