<svg width="35" height="35" viewBox="0 0 35 35" fill="none" xmlns="http://www.w3.org/2000/svg">
<path d="M27.2222 35C26.6713 35 26.2098 34.8133 25.8378 34.44C25.4657 34.0667 25.2791 33.6052 25.2778 33.0555V13.6111C25.2778 12.5417 24.8973 11.6265 24.1364 10.8656C23.3755 10.1046 22.4596 9.72352 21.3889 9.72222H14.5833C14.0324 9.72222 13.5709 9.53555 13.1989 9.16222C12.8268 8.78889 12.6402 8.32741 12.6389 7.77778V1.94444C12.6389 1.39352 12.8256 0.932037 13.1989 0.56C13.5722 0.187963 14.0337 0.0012963 14.5833 0H33.0555C33.6065 0 34.0686 0.186667 34.4419 0.56C34.8153 0.933333 35.0013 1.39481 35 1.94444V33.0555C35 33.6065 34.8133 34.0686 34.44 34.4419C34.0667 34.8153 33.6052 35.0013 33.0555 35H27.2222ZM14.5833 35C14.0324 35 13.5709 34.8133 13.1989 34.44C12.8268 34.0667 12.6402 33.6052 12.6389 33.0555V15.5556C12.6389 15.0046 12.8256 14.5431 13.1989 14.1711C13.5722 13.7991 14.0337 13.6124 14.5833 13.6111H19.4444C19.9954 13.6111 20.4575 13.7978 20.8308 14.1711C21.2042 14.5444 21.3902 15.0059 21.3889 15.5556V33.0555C21.3889 33.6065 21.2022 34.0686 20.8289 34.4419C20.4556 34.8153 19.9941 35.0013 19.4444 35H14.5833ZM1.94444 35C1.39352 35 0.932037 34.8133 0.56 34.44C0.187963 34.0667 0.0012963 33.6052 0 33.0555V15.5556C0 15.0046 0.186667 14.5431 0.56 14.1711C0.933333 13.7991 1.39481 13.6124 1.94444 13.6111H6.80555C7.35648 13.6111 7.81861 13.7978 8.19194 14.1711C8.56528 14.5444 8.75129 15.0059 8.75 15.5556V33.0555C8.75 33.6065 8.56333 34.0686 8.19 34.4419C7.81666 34.8153 7.35518 35.0013 6.80555 35H1.94444Z" fill="url(#paint0_linear_617_626)"/>
<defs>
<linearGradient id="paint0_linear_617_626" x1="29.1882" y1="17.5" x2="10.5904" y2="17.5" gradientUnits="userSpaceOnUse">
<stop stop-color="#7F31FF"/>
<stop offset="1" stop-color="#2BB3FF"/>
</linearGradient>
</defs>
</svg>
