<svg width="36" height="35" viewBox="0 0 36 35" fill="none" xmlns="http://www.w3.org/2000/svg">
<path d="M27.7222 35C27.1713 35 26.7098 34.8133 26.3378 34.44C25.9657 34.0667 25.7791 33.6052 25.7778 33.0555V13.6111C25.7778 12.5417 25.3973 11.6265 24.6364 10.8656C23.8755 10.1046 22.9596 9.72352 21.8889 9.72222H15.0833C14.5324 9.72222 14.0709 9.53555 13.6989 9.16222C13.3268 8.78889 13.1402 8.32741 13.1389 7.77778V1.94444C13.1389 1.39352 13.3256 0.932037 13.6989 0.56C14.0722 0.187963 14.5337 0.0012963 15.0833 0H33.5555C34.1065 0 34.5686 0.186667 34.9419 0.56C35.3153 0.933333 35.5013 1.39481 35.5 1.94444V33.0555C35.5 33.6065 35.3133 34.0686 34.94 34.4419C34.5667 34.8153 34.1052 35.0013 33.5555 35H27.7222ZM15.0833 35C14.5324 35 14.0709 34.8133 13.6989 34.44C13.3268 34.0667 13.1402 33.6052 13.1389 33.0555V15.5556C13.1389 15.0046 13.3256 14.5431 13.6989 14.1711C14.0722 13.7991 14.5337 13.6124 15.0833 13.6111H19.9444C20.4954 13.6111 20.9575 13.7978 21.3308 14.1711C21.7042 14.5444 21.8902 15.0059 21.8889 15.5556V33.0555C21.8889 33.6065 21.7022 34.0686 21.3289 34.4419C20.9556 34.8153 20.4941 35.0013 19.9444 35H15.0833ZM2.44444 35C1.89352 35 1.43204 34.8133 1.06 34.44C0.687963 34.0667 0.501296 33.6052 0.5 33.0555V15.5556C0.5 15.0046 0.686667 14.5431 1.06 14.1711C1.43333 13.7991 1.89481 13.6124 2.44444 13.6111H7.30555C7.85648 13.6111 8.31861 13.7978 8.69194 14.1711C9.06528 14.5444 9.25129 15.0059 9.25 15.5556V33.0555C9.25 33.6065 9.06333 34.0686 8.69 34.4419C8.31666 34.8153 7.85518 35.0013 7.30555 35H2.44444Z" fill="url(#paint0_linear_623_676)"/>
<defs>
<linearGradient id="paint0_linear_623_676" x1="29.6882" y1="17.5" x2="11.0904" y2="17.5" gradientUnits="userSpaceOnUse">
<stop stop-color="#7F31FF"/>
<stop offset="1" stop-color="#2BB3FF"/>
</linearGradient>
</defs>
</svg>
