<svg width="47" height="47" viewBox="0 0 47 47" fill="none" xmlns="http://www.w3.org/2000/svg">
<path fill-rule="evenodd" clip-rule="evenodd" d="M23.4926 11.7549C23.4921 9.91938 23.9216 8.10926 24.7466 6.46961C25.5717 4.82995 26.7694 3.40635 28.2437 2.31289C29.718 1.21942 31.4279 0.486496 33.2365 0.172845C35.0451 -0.140806 36.902 -0.026462 38.6584 0.506714C38.936 0.590812 39.1871 0.7454 39.3872 0.95541C39.5873 1.16542 39.7295 1.42369 39.8001 1.70503C39.8707 1.98638 39.8671 2.28121 39.7898 2.56079C39.7125 2.84037 39.5641 3.09515 39.3591 3.3003L31.9272 10.7297C32.0715 11.831 32.5758 12.8537 33.3616 13.6387C34.1474 14.4237 35.1707 14.9269 36.2722 15.07L43.6995 7.64064C43.9047 7.43558 44.1594 7.28717 44.439 7.20988C44.7186 7.13259 45.0134 7.12905 45.2948 7.19962C45.5762 7.27018 45.8344 7.41243 46.0444 7.61251C46.2545 7.81259 46.409 8.06367 46.4931 8.34128C47.051 10.1787 47.1501 12.1249 46.7818 14.0095C46.4135 15.8941 45.5889 17.6597 44.3803 19.1519C43.1716 20.6441 41.6158 21.8174 39.8487 22.5692C38.0817 23.3209 36.1574 23.6282 34.2441 23.4642C31.9653 23.2717 30.0581 23.6881 29.0754 24.8834L13.0701 44.3243C12.4148 45.1162 11.6013 45.7625 10.6817 46.2218C9.76219 46.6812 8.75685 46.9434 7.7301 46.9918C6.70334 47.0402 5.67779 46.8736 4.71912 46.5028C3.76045 46.132 2.88978 45.565 2.16287 44.8383C1.43596 44.1116 0.868819 43.241 0.497772 42.2825C0.126724 41.3239 -0.040056 40.2984 0.00810999 39.2717C0.0562759 38.2449 0.318326 37.2396 0.777482 36.3199C1.23664 35.4003 1.88278 34.5867 2.67453 33.9312L22.1137 17.9241C23.3068 16.9391 23.7254 15.0342 23.5329 12.7555C23.5045 12.4227 23.4911 12.0889 23.4926 11.7549ZM5.84649 39.4557C5.84649 39.0104 6.02337 38.5834 6.33822 38.2686C6.65307 37.9537 7.0801 37.7768 7.52536 37.7768H7.54327C7.98853 37.7768 8.41556 37.9537 8.73041 38.2686C9.04526 38.5834 9.22214 39.0104 9.22214 39.4557V39.4736C9.22214 39.9188 9.04526 40.3459 8.73041 40.6607C8.41556 40.9755 7.98853 41.1524 7.54327 41.1524H7.52536C7.0801 41.1524 6.65307 40.9755 6.33822 40.6607C6.02337 40.3459 5.84649 39.9188 5.84649 39.4736V39.4557Z" fill="url(#paint0_linear_617_624)"/>
<defs>
<linearGradient id="paint0_linear_617_624" x1="39.1956" y1="23.5" x2="14.2214" y2="23.5" gradientUnits="userSpaceOnUse">
<stop stop-color="#7F31FF"/>
<stop offset="1" stop-color="#2BB3FF"/>
</linearGradient>
</defs>
</svg>
