<svg width="49" height="49" viewBox="0 0 49 49" fill="none" xmlns="http://www.w3.org/2000/svg">
<path d="M38.3979 4V11.1059M38.3979 11.1059V18.2117M38.3979 11.1059H45.5037M38.3979 11.1059H31.292" stroke="url(#paint0_linear_617_628)" stroke-width="7" stroke-linecap="round" stroke-linejoin="round"/>
<path fill-rule="evenodd" clip-rule="evenodd" d="M43.1351 24.5065C40.6048 25.4028 37.8724 25.5641 35.2541 24.9718C32.6359 24.3794 30.239 23.0577 28.3408 21.1595C26.4427 19.2614 25.1209 16.8645 24.5286 14.2462C23.9363 11.628 24.0976 8.89557 24.9939 6.36523H7.60586C5.72127 6.36523 3.91386 7.11389 2.58126 8.44649C1.24865 9.7791 0.5 11.5865 0.5 13.4711V41.8945C0.5 43.7791 1.24865 45.5865 2.58126 46.9191C3.91386 48.2517 5.72127 49.0004 7.60586 49.0004H36.0293C37.9139 49.0004 39.7213 48.2517 41.0539 46.9191C42.3865 45.5865 43.1351 43.7791 43.1351 41.8945V24.5065ZM21.8176 15.8397C22.4458 15.8397 23.0482 16.0893 23.4924 16.5335C23.9366 16.9777 24.1862 17.5801 24.1862 18.2083V37.1573C24.1862 37.7855 23.9366 38.388 23.4924 38.8322C23.0482 39.2764 22.4458 39.5259 21.8176 39.5259C21.1894 39.5259 20.5869 39.2764 20.1427 38.8322C19.6985 38.388 19.449 37.7855 19.449 37.1573V18.2083C19.449 17.5801 19.6985 16.9777 20.1427 16.5335C20.5869 16.0893 21.1894 15.8397 21.8176 15.8397ZM12.3431 22.9456C12.9713 22.9456 13.5738 23.1951 14.018 23.6393C14.4622 24.0835 14.7117 24.686 14.7117 25.3142V37.1573C14.7117 37.7855 14.4622 38.388 14.018 38.8322C13.5738 39.2764 12.9713 39.5259 12.3431 39.5259C11.7149 39.5259 11.1124 39.2764 10.6682 38.8322C10.224 38.388 9.97448 37.7855 9.97448 37.1573V25.3142C9.97448 24.686 10.224 24.0835 10.6682 23.6393C11.1124 23.1951 11.7149 22.9456 12.3431 22.9456ZM31.292 30.0514C31.9202 30.0514 32.5227 30.301 32.9669 30.7452C33.4111 31.1894 33.6607 31.7919 33.6607 32.4201V37.1573C33.6607 37.7855 33.4111 38.388 32.9669 38.8322C32.5227 39.2764 31.9202 39.5259 31.292 39.5259C30.6639 39.5259 30.0614 39.2764 29.6172 38.8322C29.173 38.388 28.9234 37.7855 28.9234 37.1573V32.4201C28.9234 31.7919 29.173 31.1894 29.6172 30.7452C30.0614 30.301 30.6639 30.0514 31.292 30.0514Z" fill="url(#paint1_linear_617_628)"/>
<defs>
<linearGradient id="paint0_linear_617_628" x1="45.5037" y1="4" x2="29.5753" y2="6.29447" gradientUnits="userSpaceOnUse">
<stop stop-color="#9334DF"/>
<stop offset="1" stop-color="#6A00D5"/>
</linearGradient>
<linearGradient id="paint1_linear_617_628" x1="36.0555" y1="27.6828" x2="13.4007" y2="27.6828" gradientUnits="userSpaceOnUse">
<stop stop-color="#7F31FF"/>
<stop offset="1" stop-color="#2BB3FF"/>
</linearGradient>
</defs>
</svg>
