<svg width="21" height="21" viewBox="0 0 21 21" fill="none" xmlns="http://www.w3.org/2000/svg">
<g clip-path="url(#clip0_599_5)">
<path d="M6.54704 6.78392L4.42787 8.89809C4.0387 9.28642 3.6812 9.64226 3.3987 9.96476C3.20779 10.1776 3.03523 10.4062 2.88287 10.6481L2.86287 10.6273L2.7837 10.5489C2.41506 10.1916 1.9818 9.90765 1.50703 9.71226L1.40453 9.67059L1.0887 9.54559C0.990343 9.50681 0.903191 9.44415 0.83511 9.36326C0.76703 9.28237 0.720166 9.1858 0.698748 9.08227C0.67733 8.97873 0.682033 8.8715 0.712431 8.77023C0.74283 8.66897 0.797968 8.57687 0.872868 8.50226C1.8062 7.57059 2.92704 6.45309 3.4687 6.22892C3.93894 6.0316 4.45392 5.96564 4.9587 6.03809C5.4137 6.10559 5.8437 6.33976 6.54704 6.78392ZM10.1662 17.9089C10.337 18.0823 10.4495 18.2048 10.5529 18.3356C10.6879 18.5081 10.8087 18.6914 10.9145 18.8839C11.0329 19.1006 11.1254 19.3314 11.3095 19.7939C11.3458 19.8812 11.4031 19.9583 11.4762 20.0182C11.5494 20.0782 11.6361 20.1192 11.7289 20.1376C11.8216 20.1561 11.9175 20.1514 12.008 20.124C12.0985 20.0966 12.1809 20.0474 12.2479 19.9806L12.3179 19.9114C13.2512 18.9806 14.372 17.8631 14.597 17.3239C14.7947 16.8555 14.8607 16.3421 14.7879 15.8389C14.7204 15.3848 14.4862 14.9556 14.0404 14.2539L11.9137 16.3739C11.5154 16.7714 11.1504 17.1356 10.8195 17.4206C10.622 17.5923 10.4054 17.7623 10.1662 17.9089Z" fill="white"/>
<path fill-rule="evenodd" clip-rule="evenodd" d="M12.644 15.0174L18.491 9.18738C19.333 8.34838 19.754 7.92838 19.975 7.39538C20.197 6.86038 20.197 6.26738 20.197 5.08038V4.51338C20.197 2.68738 20.197 1.77438 19.628 1.20738C19.059 0.640381 18.144 0.640381 16.313 0.640381H15.743C14.553 0.640381 13.958 0.640381 13.423 0.861381C12.887 1.08238 12.466 1.50238 11.623 2.34138L5.77696 8.17138C4.79296 9.15138 4.18296 9.76038 3.94696 10.3474C3.87337 10.5256 3.83532 10.7165 3.83496 10.9094C3.83496 11.7114 4.48196 12.3574 5.77696 13.6484L5.95096 13.8214L7.98896 11.7524C8.0581 11.6822 8.14039 11.6263 8.23113 11.5879C8.32187 11.5495 8.41928 11.5294 8.5178 11.5286C8.61633 11.5279 8.71403 11.5466 8.80534 11.5836C8.89665 11.6206 8.97977 11.6752 9.04996 11.7444C9.12015 11.8135 9.17604 11.8958 9.21443 11.9866C9.25282 12.0773 9.27296 12.1747 9.2737 12.2732C9.27444 12.3717 9.25577 12.4695 9.21876 12.5608C9.18174 12.6521 9.1271 12.7352 9.05796 12.8054L7.01296 14.8804L7.14996 15.0174C8.44496 16.3074 9.09296 16.9534 9.89696 16.9534C10.075 16.9534 10.245 16.9224 10.416 16.8594C11.019 16.6374 11.635 16.0234 12.644 15.0174ZM15.391 8.17138C15.0262 8.53478 14.5323 8.73883 14.0175 8.73883C13.5026 8.73883 13.0087 8.53478 12.644 8.17138C12.4637 7.99187 12.3207 7.77853 12.2231 7.5436C12.1255 7.30867 12.0752 7.05678 12.0752 6.80238C12.0752 6.54798 12.1255 6.29609 12.2231 6.06116C12.3207 5.82623 12.4637 5.61289 12.644 5.43338C13.0087 5.06998 13.5026 4.86594 14.0175 4.86594C14.5323 4.86594 15.0262 5.06998 15.391 5.43338C15.5712 5.61289 15.7143 5.82623 15.8119 6.06116C15.9095 6.29609 15.9597 6.54798 15.9597 6.80238C15.9597 7.05678 15.9095 7.30867 15.8119 7.5436C15.7143 7.77853 15.5712 7.99187 15.391 8.17138Z" fill="white"/>
</g>
<defs>
<clipPath id="clip0_599_5">
<rect width="20" height="20" fill="white" transform="translate(0.5 0.333252)"/>
</clipPath>
</defs>
</svg>
