<svg width="506" height="491" viewBox="0 0 506 491" fill="none" xmlns="http://www.w3.org/2000/svg">
<path d="M445.25 422.296C435.109 432.806 425.514 439.583 417.933 444.938C328.822 507.882 223.38 489.534 200.971 485.053C167.879 478.437 103.914 465.647 57.6683 412.108C-12.2977 331.109 -1.40295 203.497 52.8674 119.259C62.7942 103.85 115.231 18.3289 221.809 4.61387C286.308 -3.68631 361.494 13.0542 415.942 57.961C530.232 152.225 522.095 342.653 445.25 422.296Z" fill="url(#paint0_linear_518_275)"/>
<path d="M500.263 2.47121C500.733 0.50212 497.919 -0.806571 496.196 0.568755C478.701 14.5349 436.665 56.3574 447.142 129.445C460.285 221.145 437.815 254.606 409.844 275.016C409.844 275.016 448.257 265.418 472.425 231.465C531.762 148.103 491.909 37.4811 500.263 2.47121Z" fill="#BDD0FB"/>
<path d="M486.949 31.1125C484.76 41.3209 482.81 51.5607 481.302 61.8463C479.732 72.1234 478.528 82.4364 477.704 92.7665C476.927 103.098 476.379 113.441 476.348 123.788C476.262 134.134 476.699 144.472 477.18 154.851C477.593 165.225 478.078 175.674 477.307 186.198C476.548 196.7 474.303 207.293 469.847 217.224C468.733 219.699 467.561 222.167 466.231 224.551C464.951 226.957 463.546 229.315 462.093 231.651C459.157 236.313 455.852 240.816 452.168 245.091C444.776 253.625 435.86 261.196 426.037 267.604C425.003 268.278 423.522 268.112 422.729 267.233C421.95 266.371 422.124 265.141 423.109 264.458L423.116 264.454C425.453 262.838 427.766 261.201 429.984 259.482C431.11 258.638 432.189 257.753 433.288 256.885C434.346 255.984 435.446 255.116 436.471 254.188C440.642 250.533 444.506 246.634 448.011 242.512C455.062 234.305 460.707 225.16 464.983 215.679C467.059 210.917 468.719 206.033 469.931 201.057C471.138 196.08 471.897 191.017 472.317 185.912C473.158 175.698 472.778 165.352 472.453 154.976C472.144 144.597 471.916 134.165 472.195 123.742C472.317 118.531 472.55 113.322 472.892 108.119C473.046 105.517 473.258 102.918 473.466 100.319C473.702 97.7215 473.956 95.1257 474.234 92.5322C475.37 82.1593 476.877 71.8208 478.767 61.5373C480.714 51.2615 482.982 41.0331 485.709 30.8963C485.787 30.6064 486.127 30.4254 486.468 30.4917C486.798 30.5559 487.009 30.8314 486.949 31.1125Z" fill="white"/>
<path d="M454.943 221.963C457.088 224.203 460.86 223.559 462.151 220.754C469.271 205.279 485.384 159.733 458.773 107.262C436.301 62.9522 428.394 36.8234 425.639 24.7169C425.056 22.1569 421.492 21.8171 420.417 24.2174C408.549 50.6987 377.213 140.774 454.943 221.963Z" fill="#91B3FA"/>
<path d="M458.839 220.329C458.915 220.343 458.994 220.349 459.074 220.348C459.749 220.338 460.287 219.791 460.277 219.128C460.265 218.375 458.777 143.156 430.359 80.1569C430.085 79.5507 429.364 79.2771 428.747 79.5461C428.131 79.8158 427.853 80.5258 428.127 81.1329C456.338 143.673 457.823 218.417 457.835 219.165C457.844 219.749 458.275 220.23 458.839 220.329Z" fill="white"/>
<path d="M192.004 343.37L182.152 430.353H296.453L281.565 343.37H192.004Z" fill="url(#paint1_linear_518_275)"/>
<path d="M0 129.063V328.277C0 344.665 13.2655 358.066 29.9068 358.489C103.819 360.365 362.327 364.915 432.686 363.894C444.779 363.718 454.576 354.191 454.925 342.29C456.281 296.01 458.485 184.722 450.33 133.055C448.613 122.175 439.284 114.039 428.105 113.687C366.176 111.736 92.14 105.543 21.8136 107.098C9.68496 107.366 0 117.12 0 129.063Z" fill="url(#paint2_linear_518_275)"/>
<path d="M12.6976 128.093V317.36C12.6976 326.928 20.4996 334.724 30.2179 334.867L422.564 339.639C432.199 339.781 440.097 332.15 440.133 322.664L440.789 135.088C440.815 128.305 435.326 122.747 428.438 122.582L26.7478 114.593C19.0439 114.409 12.6976 120.507 12.6976 128.093Z" fill="url(#paint3_linear_518_275)"/>
<path d="M443.087 347.454C443.083 347.454 443.08 347.454 443.076 347.454L12.6873 340.235C12.3545 340.229 12.0895 339.959 12.0952 339.632C12.1007 339.307 12.3697 339.049 12.6976 339.049C12.7008 339.049 12.7044 339.049 12.7079 339.049L443.097 346.268C443.43 346.273 443.695 346.543 443.689 346.87C443.683 347.195 443.415 347.454 443.087 347.454Z" fill="#91B3FA"/>
<path d="M321.073 448.15H153.787C149.242 448.15 145.829 444.965 146.708 441.544L148.854 433.187C149.5 430.673 152.309 428.828 155.645 428.726L316.915 423.772C320.4 423.665 323.486 425.486 324.245 428.098L328.115 441.409C329.12 444.867 325.691 448.15 321.073 448.15Z" fill="url(#paint4_linear_518_275)"/>
<path d="M243.84 431.046C243.511 431.046 243.243 430.786 243.238 430.462C243.233 430.134 243.499 429.865 243.831 429.86L250.742 429.761C251.069 429.761 251.349 430.018 251.353 430.345C251.358 430.673 251.092 430.942 250.76 430.947L243.849 431.046C243.846 431.046 243.843 431.046 243.84 431.046Z" fill="white"/>
<path d="M152.902 443.599C152.87 443.599 152.838 443.597 152.806 443.592C152.477 443.54 152.253 443.236 152.306 442.913L153.292 436.834C153.826 433.54 156.672 431.115 160.06 431.065L233.358 430.011C233.664 429.998 233.964 430.268 233.969 430.595C233.974 430.923 233.708 431.192 233.375 431.197L160.077 432.252C157.277 432.292 154.923 434.298 154.481 437.021L153.496 443.099C153.448 443.391 153.192 443.599 152.902 443.599Z" fill="#91B3FA"/>
<path d="M440.735 150.549L440.789 135.088C440.815 128.305 435.326 122.748 428.438 122.583L26.8276 114.594C19.1236 114.409 12.8571 120.507 12.8571 128.093V150.549H440.735V150.549Z" fill="url(#paint5_linear_518_275)"/>
<path opacity="0.49" d="M36.8768 143.867C39.9161 142.597 41.3344 139.142 40.0447 136.15C38.7551 133.158 35.2458 131.762 32.2066 133.032C29.1673 134.301 27.749 137.756 29.0387 140.748C30.3283 143.74 33.8376 145.136 36.8768 143.867Z" fill="white"/>
<path opacity="0.49" d="M57.3716 143.867C60.4108 142.598 61.8291 139.143 60.5395 136.151C59.2498 133.159 55.7406 131.763 52.7013 133.032C49.6621 134.302 48.2438 137.757 49.5334 140.749C50.8231 143.74 54.3323 145.137 57.3716 143.867Z" fill="white"/>
<path opacity="0.49" d="M82.154 140.402C83.2406 137.333 81.5939 133.977 78.4761 132.908C75.3583 131.838 71.9499 133.459 70.8633 136.528C69.7767 139.598 71.4234 142.953 74.5412 144.023C77.659 145.092 81.0674 143.471 82.154 140.402Z" fill="white"/>
<path d="M451.294 400.084L270.638 400.085V365.795L451.294 365.795C447.428 365.795 447.428 400.084 451.294 400.084Z" fill="#BDD0FB"/>
<path d="M270.638 391.504V375.811C270.638 370.28 274.208 365.795 278.612 365.795H450.532C453.996 365.795 456.803 363.133 456.803 359.848C456.803 358.851 455.95 358.042 454.898 358.042H267.002C262.693 358.042 255.852 364.466 255.852 372.392V394.308C255.852 401.78 262.493 407.838 266.556 407.838H453.909C455.508 407.838 456.803 406.609 456.803 405.094C456.803 402.327 454.438 400.085 451.521 400.085H277.469C273.696 400.084 270.638 396.243 270.638 391.504Z" fill="#7D97F4"/>
<path d="M445.038 373.432H275.648C275.31 373.432 275.037 373.162 275.037 372.831C275.037 372.499 275.31 372.229 275.648 372.229H445.038C445.375 372.229 445.648 372.499 445.648 372.831C445.648 373.162 445.375 373.432 445.038 373.432Z" fill="white"/>
<path d="M445.038 378.521H275.648C275.31 378.521 275.037 378.252 275.037 377.92C275.037 377.589 275.31 377.319 275.648 377.319H445.038C445.375 377.319 445.648 377.589 445.648 377.92C445.648 378.252 445.375 378.521 445.038 378.521Z" fill="white"/>
<path d="M445.038 383.611H275.648C275.31 383.611 275.037 383.342 275.037 383.01C275.037 382.678 275.31 382.409 275.648 382.409H445.038C445.375 382.409 445.648 382.678 445.648 383.01C445.648 383.342 445.375 383.611 445.038 383.611Z" fill="white"/>
<path d="M445.038 388.7H275.648C275.31 388.7 275.037 388.431 275.037 388.099C275.037 387.768 275.31 387.499 275.648 387.499H445.038C445.375 387.499 445.648 387.768 445.648 388.099C445.648 388.431 445.375 388.7 445.038 388.7Z" fill="white"/>
<path d="M445.038 393.79H275.648C275.31 393.79 275.037 393.521 275.037 393.189C275.037 392.858 275.31 392.588 275.648 392.588H445.038C445.375 392.588 445.648 392.858 445.648 393.189C445.648 393.521 445.375 393.79 445.038 393.79Z" fill="white"/>
<path d="M203.04 464.767H502.19C504.294 464.767 506 463.087 506 461.016V411.223C506 409.152 504.294 407.472 502.19 407.472H203.04C200.935 407.472 199.229 409.152 199.229 411.223V461.016C199.229 463.087 200.935 464.767 203.04 464.767Z" fill="url(#paint6_linear_518_275)"/>
<path d="M451.716 458.182H477.461C478.174 458.182 478.751 457.613 478.751 456.912V415.327C478.751 414.625 478.174 414.057 477.461 414.057H451.716C451.004 414.057 450.426 414.625 450.426 415.327V456.912C450.427 457.613 451.004 458.182 451.716 458.182Z" fill="#7D97F4"/>
<path d="M436.682 458.182H445.211C445.791 458.182 446.26 457.719 446.26 457.149V415.09C446.26 414.519 445.791 414.057 445.211 414.057H436.682C436.102 414.057 435.633 414.519 435.633 415.09V457.149C435.633 457.719 436.102 458.182 436.682 458.182Z" fill="#7D97F4"/>
<path d="M300.209 396.904C300.279 396.877 337.793 332.203 342.863 326.116C343.716 325.093 345.035 324.571 346.371 324.728L356.842 325.956L369.143 352.154L348.649 340.405C350.677 354.211 324.351 374.729 315.322 382.216C314.406 382.976 314.331 384.337 315.158 385.19L318.763 388.904C312.845 394.809 306.017 398.601 298.309 400.355L300.209 396.904Z" fill="url(#paint7_linear_518_275)"/>
<path d="M316.678 386.899C316.678 386.899 318.978 387.631 319.757 389.648C320.13 390.613 319.728 391.706 318.876 392.307C315.087 394.979 302.592 403.605 296.826 405.294C296.353 405.432 295.904 405.012 296.01 404.538C296.306 403.219 297.263 400.586 300.347 396.731L300.07 397.281C299.72 397.979 300.491 398.704 301.179 398.322C305.036 396.179 312.891 391.488 316.678 386.899Z" fill="url(#paint8_linear_518_275)"/>
<path d="M314.821 412.777C314.884 412.737 320.512 399.388 320.575 399.348C325.736 368.417 338.327 341.927 342.04 334.956C342.665 333.784 343.85 333.01 345.19 332.898L355.697 332.015L373.129 355.22L350.644 347.796C355.469 360.913 333.905 386.252 326.602 395.382C325.861 396.309 326.067 397.656 327.053 398.327L331.346 401.246C326.765 408.208 320.857 413.282 313.67 416.535L314.821 412.777Z" fill="url(#paint9_linear_518_275)"/>
<path d="M328.893 399.698C328.893 399.698 331.296 399.956 332.473 401.777C333.037 402.647 332.868 403.798 332.157 404.557C328.996 407.928 318.533 418.864 313.233 421.668C312.799 421.898 312.272 421.575 312.278 421.089C312.297 419.739 312.693 416.969 314.921 412.58L314.763 413.174C314.563 413.927 315.468 414.484 316.063 413.973C319.399 411.105 326.128 404.946 328.893 399.698Z" fill="url(#paint10_linear_518_275)"/>
<path d="M404.878 327.128C404.878 327.128 414.382 341.045 415.162 347.393C415.942 353.742 412.534 355.937 402.586 356.747C372.981 359.156 358.388 350.422 358.388 350.422C356.363 337.71 354.922 334.476 338.008 327.565C338.008 327.565 359.401 329.237 363.706 327.592C368.012 325.947 404.878 327.128 404.878 327.128Z" fill="url(#paint11_linear_518_275)"/>
<path d="M362.976 255.583C362.976 255.583 372.712 244.243 383.062 258.156C384.937 260.676 392.137 258.597 394.777 263.872C396.14 266.595 399.084 268.142 402.116 267.592C409.669 266.22 422.014 266.105 428.11 277.756C432.763 286.65 429.17 291.855 424.519 294.823C421.104 297.002 419.884 301.427 421.95 304.88C423.931 308.192 424.304 312.677 419.188 318.075C407.724 330.171 385.03 310.399 385.03 310.399L367.012 268.483L362.976 255.583Z" fill="url(#paint12_linear_518_275)"/>
<path d="M379.173 325.285C379.173 325.285 368.105 314.91 362.657 308.038C359.711 304.323 358.787 299.433 360.149 294.915C362.636 286.665 367.057 278.121 367.46 276.791C368.078 274.752 380.488 274.837 380.488 274.837C380.488 274.837 404.909 290.44 414.505 316.871L403.729 320.174C403.729 320.174 397.352 309.642 391.052 302.947C391.052 302.947 401.954 317.124 402.337 322.928L379.173 325.285Z" fill="url(#paint13_linear_518_275)"/>
<path d="M358.084 329.38L366.401 320.472L376.006 323.018C376.006 323.018 387.204 324.726 393.613 323.018C400.022 321.31 400.022 321.31 400.022 321.31L414.505 316.871L416.779 323.2C417.357 324.806 416.777 326.59 415.365 327.577C414.112 328.454 412.644 329.417 411.708 329.82C409.8 330.642 367.772 330.08 367.772 330.08L358.084 329.38Z" fill="url(#paint14_linear_518_275)"/>
<path d="M371.959 260.148L380.3 275.417C379.749 278.75 371.222 278.844 369.904 276.854C369.77 276.651 369.693 276.417 369.642 276.181L364.653 265.978C364.438 264.983 367.209 261.631 368.121 261.153L371.436 259.416C372.713 258.747 367.386 258.694 371.959 260.148Z" fill="url(#paint15_linear_518_275)"/>
<path d="M363.789 248.246C363.789 248.246 359.568 251.441 358.135 259.022C356.703 266.603 359.94 269.099 363.08 268.748C366.22 268.396 370.729 267.165 374.358 261.572C377.987 255.978 369.336 244.319 363.789 248.246Z" fill="url(#paint16_linear_518_275)"/>
<path d="M370.182 258.797C370.182 258.797 371.138 247.999 362.213 250.173L360.502 252.152C360.502 252.152 355.784 247.517 360.446 243.524C365.107 239.531 371.95 240.075 376.117 246.592C380.284 253.109 381.937 257.764 379.048 262.14C376.159 266.515 373.572 263.064 373.572 263.064C373.572 263.064 374.792 259.353 373.5 257.869C372.207 256.385 370.814 258.937 370.814 258.937L370.182 258.797Z" fill="url(#paint17_linear_518_275)"/>
<path d="M371.472 259.64C371.472 259.64 371.93 254.087 374.883 255.491C377.836 256.895 374.169 260.695 372.686 262.003L371.472 259.64Z" fill="url(#paint18_linear_518_275)"/>
<path d="M385.614 332.905C385.585 332.907 385.555 332.907 385.526 332.907L347.273 332.866C346.327 332.866 345.561 332.11 345.562 331.179C345.563 330.248 346.333 329.478 347.276 329.495L385.53 329.536C386.475 329.537 387.241 330.293 387.24 331.223C387.239 332.126 386.519 332.861 385.614 332.905Z" fill="url(#paint19_linear_518_275)"/>
<path d="M312.885 298.714H344.742C347.092 298.714 349.231 300.049 350.234 302.141L364.962 332.885H325.371C323.857 332.885 322.496 331.974 321.939 330.587L310.519 302.139C309.859 300.495 311.089 298.714 312.885 298.714Z" fill="url(#paint20_linear_518_275)"/>
<path d="M335.329 314.477C336.019 316.588 335.509 318.639 334.19 319.057C332.87 319.475 331.241 318.102 330.55 315.991C329.86 313.879 330.37 311.829 331.69 311.411C333.009 310.992 334.638 312.365 335.329 314.477Z" fill="url(#paint21_linear_518_275)"/>
<path d="M82.167 36.702C82.1761 36.4483 82.1841 36.2154 82.1905 36.0134C82.2088 35.4437 81.9742 34.8983 81.5435 34.5174C79.0188 32.2857 69.5636 24.631 56.2012 22.2465C55.481 22.1179 54.8565 22.4381 54.506 22.9442C55.6198 23.0771 57.1125 23.3568 59.1238 23.8769C65.7287 25.5851 75.3322 30.13 82.167 36.702Z" fill="#7D97F4"/>
<path d="M59.1236 23.8773C57.1124 23.3572 55.6195 23.0773 54.5059 22.9446C54.153 23.4538 54.0777 24.1509 54.4628 24.7686C54.6796 25.1164 54.946 25.4927 55.2736 25.8964C57.3648 28.4741 74.2659 45.545 74.2659 45.545C74.2659 45.545 79.6316 46.1896 81.2718 45.2537C81.8033 44.9505 82.0671 39.4674 82.1671 36.7022C75.3323 30.1304 65.7288 25.5855 59.1236 23.8773Z" fill="url(#paint22_linear_518_275)"/>
<path d="M81.5242 54.433V44.2654C81.5242 43.4044 80.9688 42.6309 80.1358 42.3677C78.854 41.9628 76.8832 41.5837 75.0913 42.2448C74.0398 42.6327 73.3332 43.6145 73.2437 44.7163L72.4741 54.2125L81.5242 54.433Z" fill="url(#paint23_linear_518_275)"/>
<path d="M40.5626 45.4298C40.4391 45.0293 40.2005 44.6945 39.8946 44.4441C37.7272 44.8655 33.212 46.0413 23.9619 49.2566C13.2381 52.9842 10.0993 56.239 9.19458 57.9797C13.7895 59.3042 24.2322 61.3292 39.2127 58.4471L42.1723 57.081C42.1723 57.081 41.9648 49.9759 40.5626 45.4298Z" fill="url(#paint24_linear_518_275)"/>
<path d="M23.9618 49.2567C33.212 46.0413 37.7271 44.8656 39.8946 44.4442C39.4177 44.0538 38.7743 43.8737 38.1252 44.0068C32.7996 45.0977 16.7072 48.8271 8.29713 55.539C7.45762 56.2091 7.70326 57.5316 8.7364 57.8446C8.88157 57.8886 9.03529 57.9339 9.19454 57.9798C10.0992 56.2391 13.238 52.9841 23.9618 49.2567Z" fill="#7D97F4"/>
<path d="M47.7151 63.2217L41.4121 55.786C40.7984 55.062 39.8002 54.7756 38.8902 55.0699C37.8814 55.396 36.5407 56.069 35.2437 57.4573C34.6386 58.1048 34.5198 59.0641 34.9295 59.8461L39.5147 68.5936L47.7151 63.2217Z" fill="url(#paint25_linear_518_275)"/>
<path d="M71.093 50.8932C71.093 50.8932 78.7844 49.4394 83.0525 50.8932C83.0525 50.8932 88.6774 84.1273 87.7109 94.8132L71.093 98.1383C71.093 98.1383 70.621 60.6941 71.093 50.8932Z" fill="#100720"/>
<path d="M139.295 109.123C139.295 109.123 84.9531 112.126 62.8974 110.628C60.7369 110.481 58.8208 109.223 57.8531 107.316C53.1257 97.9997 38.9493 70.0436 37.7056 67.3755C37.7056 67.3755 43.4638 62.6397 47.7151 61.9856C47.7151 61.9856 67.8421 84.0283 68.6837 95.2743C68.6837 95.2743 115.293 82.0775 119.897 82.2025C124.5 82.3275 138.617 88.5285 138.617 88.5285L139.295 109.123Z" fill="#100720"/>
<path d="M211.734 67.4246C211.734 67.4246 209.74 63.344 211.469 61.1903C213.199 59.0365 219.433 52.371 219.433 52.371L220.158 47.7644L222.719 55.2678L217.221 66.5874C217.221 66.5874 214.002 70.0149 211.734 67.4246Z" fill="url(#paint26_linear_518_275)"/>
<path d="M225.696 86.4074C223.682 79.4415 220.911 72.8111 217.221 66.5872L211.733 67.4243L214.441 86.1521C216.513 86.7688 222.163 88.1749 225.696 86.4074Z" fill="url(#paint27_linear_518_275)"/>
<path d="M229.25 104.643C228.548 98.3511 227.389 92.2617 225.696 86.4077C222.164 88.1751 216.513 86.7691 214.441 86.1524L215.219 91.5301L213.139 84.288C210.609 75.4795 205.228 67.7246 197.813 62.2011L192.648 58.3541C187.574 54.5739 179.46 55.8796 174.282 59.5227C162.787 67.6106 145.724 81.1708 139.898 85.835C138.645 86.8379 136.93 87.062 135.453 86.4186L134.481 85.9949C133.563 85.5944 132.549 86.326 132.66 87.3091L135.134 109.572L174.622 109.123C179.358 109.123 193.074 108.642 195.256 104.506L198.907 95.6825C207.464 102.847 218.441 107.768 224.322 109.203C227.032 109.864 229.572 107.534 229.25 104.643Z" fill="#7D97F4"/>
<path d="M201.515 46.4119L189.376 58.0209C188.566 58.7949 188.49 60.0582 189.216 60.9088C192.96 65.301 196.173 67.6041 198.845 67.7776C199.979 67.851 201.052 67.2622 201.66 66.3179L208.113 56.3018L201.515 46.4119Z" fill="url(#paint28_linear_518_275)"/>
<path d="M226.017 103.616L236.46 99.6152L248.601 109.123L226.861 109.202L226.017 103.616Z" fill="url(#paint29_linear_518_275)"/>
<path d="M221.871 43.7275C221.871 43.7275 220.214 55.1949 215.74 58.7213C211.265 62.2477 202.547 59.5925 199.603 50.9475L205.47 36.1665L221.871 43.7275Z" fill="url(#paint30_linear_518_275)"/>
<path d="M204.809 45.731C205.149 45.8391 205.505 45.6242 205.559 45.2762C205.72 44.2177 206.123 42.1227 206.94 40.6958C206.94 40.6958 206.513 39.1914 210.802 41.4641C215.091 43.7369 221.533 47.0753 225.326 45.0873C229.024 43.1491 232.77 33.3941 222.997 35.2015C222.625 35.2703 222.283 34.9787 222.311 34.6073C222.431 33.004 222.269 29.3155 218.475 28.1317C214.925 27.0238 212.981 28.6018 212.18 29.5542C211.944 29.8344 211.507 29.8288 211.282 29.5399C210.219 28.173 207.33 25.2635 203.078 27.1081C199.576 28.6276 199.031 30.7513 199.089 32.0747C199.107 32.5035 198.666 32.7941 198.27 32.6145C197.197 32.128 195.472 31.8754 193.819 33.9139C191.534 36.7322 194.799 39.176 195.779 39.8169C195.939 39.922 196.039 40.0959 196.04 40.2855C196.049 41.7513 196.281 48.1445 199.536 51.7507C199.818 52.063 200.339 51.9715 200.503 51.5864L203.009 45.7081C203.125 45.435 203.435 45.2951 203.721 45.3859L204.809 45.731Z" fill="url(#paint31_linear_518_275)"/>
<path d="M204.862 46.9249C204.862 46.9249 203.331 40.7886 201.007 42.781C198.682 44.7733 201.613 49.1583 204.276 49.994L204.862 46.9249Z" fill="url(#paint32_linear_518_275)"/>
<path d="M187.379 72.8091C187.379 72.8091 187.847 58.6127 181.923 58.3275C174.566 57.9731 162.742 63.2218 169.781 84.0281C173.67 95.5231 179.53 104.053 195.62 107.666C196.403 101.841 199.085 97.7819 201.067 95.4927C194.512 90.9454 188.959 83.8597 187.379 72.8091Z" fill="#91B3FA"/>
<path d="M200.329 95.5335C200.215 95.5335 200.099 95.4997 199.998 95.4299C192.449 90.1937 188.258 83.0305 186.808 72.8888C186.803 72.8567 186.802 72.8241 186.803 72.7913C186.927 68.9974 186.286 59.1062 181.895 58.8946C179.771 58.7943 177.543 59.1867 175.622 60.0058C175.329 60.1298 174.99 59.9981 174.864 59.7103C174.737 59.4227 174.872 59.0887 175.164 58.9638C177.244 58.0772 179.655 57.6544 181.951 57.7607C188.244 58.0639 187.987 71.6846 187.956 72.7779C189.365 82.5627 193.404 89.467 200.662 94.5021C200.922 94.6829 200.984 95.0369 200.801 95.2929C200.689 95.4499 200.511 95.5335 200.329 95.5335Z" fill="#BDD0FB"/>
<path d="M190.499 106.807C190.436 106.807 190.373 106.797 190.311 106.776C176.963 102.241 172.293 93.2491 169.234 84.2078C168.541 82.1597 168.006 80.1869 167.644 78.3432C167.584 78.0356 167.788 77.738 168.101 77.6788C168.414 77.6188 168.716 77.8206 168.776 78.1282C169.129 79.9232 169.651 81.8477 170.328 83.8487C173.293 92.6145 177.812 101.329 190.687 105.703C190.988 105.806 191.148 106.128 191.044 106.425C190.961 106.66 190.738 106.807 190.499 106.807Z" fill="#BDD0FB"/>
<path d="M228.973 109.123L228.948 103.616C228.948 103.616 213.271 103.958 201.068 95.4927C199.085 97.7818 196.403 101.841 195.62 107.666C203.762 109.495 214.519 110.066 228.973 109.123Z" fill="url(#paint33_linear_518_275)"/>
<path d="M208.876 111.044C208.914 111.046 208.952 111.047 208.991 111.046L258.855 110.993C260.088 110.992 261.086 110.007 261.085 108.794C261.084 107.58 260.08 106.577 258.85 106.599L208.986 106.652C207.753 106.653 206.755 107.638 206.756 108.852C206.757 110.027 207.696 110.987 208.876 111.044Z" fill="url(#paint34_linear_518_275)"/>
<path d="M303.681 66.4739H262.154C259.09 66.4739 256.302 68.2143 254.995 70.9422L235.797 111.018H287.405C289.379 111.018 291.153 109.83 291.879 108.023L306.766 70.9386C307.626 68.796 306.022 66.4739 303.681 66.4739Z" fill="url(#paint35_linear_518_275)"/>
<path d="M274.425 87.0221C273.525 89.7745 274.19 92.4476 275.91 92.9926C277.63 93.5377 279.754 91.7481 280.654 88.9957C281.553 86.2433 280.889 83.5702 279.169 83.0252C277.449 82.4803 275.325 84.2697 274.425 87.0221Z" fill="#91B3FA"/>
<path d="M233.969 152.291L99.9895 192.494L233.969 232.697L367.948 192.494L233.969 152.291Z" fill="url(#paint36_linear_518_275)"/>
<path d="M233.969 239.864L149.646 214.561V272.363C149.646 281.851 156.385 290.056 165.813 292.024C211.097 301.476 254.64 301.769 296.333 292.333C305.568 290.243 312.079 282.097 312.079 272.767V216.425L233.969 239.864Z" fill="url(#paint37_linear_518_275)"/>
<path d="M131.021 270.768C123.696 273.972 117.29 274.039 111.803 270.97C110.199 270.072 109.401 268.227 109.765 266.447L121.69 208.077L133.524 266.005C133.926 267.973 132.884 269.953 131.021 270.768Z" fill="url(#paint38_linear_518_275)"/>
<path d="M233.969 186.538L119.954 198.465V217.936H123.333L123.68 200.872L233.969 186.538Z" fill="url(#paint39_linear_518_275)"/>
<g opacity="0.3">
<path d="M151.378 368.291C151.973 368.382 152.414 368.903 152.383 369.508C152.315 370.831 152.189 372.172 152.006 373.491C151.917 374.133 151.317 374.582 150.665 374.495C150.657 374.494 150.65 374.492 150.642 374.491C150.002 374.393 149.557 373.809 149.645 373.174C149.819 371.921 149.939 370.648 150.003 369.391C150.036 368.745 150.596 368.246 151.253 368.279C151.295 368.28 151.337 368.285 151.378 368.291ZM149.705 378.375C149.751 378.382 149.797 378.392 149.843 378.404C150.477 378.579 150.847 379.226 150.671 379.849C150.307 381.131 149.884 382.41 149.414 383.65C149.184 384.257 148.501 384.564 147.881 384.339C147.265 384.113 146.952 383.437 147.182 382.83C147.629 381.651 148.03 380.437 148.376 379.219C148.539 378.64 149.117 378.285 149.705 378.375ZM145.818 387.845C145.95 387.865 146.079 387.907 146.203 387.973C146.781 388.282 146.996 388.994 146.682 389.563C146.04 390.731 145.338 391.885 144.595 392.994C144.233 393.535 143.494 393.684 142.945 393.328C142.396 392.972 142.243 392.244 142.606 391.704C143.311 390.65 143.977 389.554 144.588 388.446C144.834 387.998 145.335 387.771 145.818 387.845ZM139.877 396.224C140.094 396.257 140.304 396.35 140.48 396.503C140.974 396.931 141.021 397.672 140.587 398.158C139.694 399.155 138.748 400.126 137.773 401.043C137.297 401.49 136.543 401.474 136.088 401.006C135.634 400.538 135.651 399.796 136.126 399.348C137.052 398.477 137.951 397.555 138.799 396.607C139.078 396.295 139.488 396.164 139.877 396.224ZM132.187 403.088C132.491 403.135 132.776 403.296 132.97 403.561C133.355 404.086 133.234 404.819 132.701 405.198C131.609 405.973 130.468 406.713 129.309 407.397C128.745 407.731 128.013 407.551 127.675 406.995C127.336 406.44 127.519 405.719 128.084 405.386C129.185 404.736 130.269 404.032 131.307 403.296C131.572 403.108 131.888 403.042 132.187 403.088ZM123.147 408.106C123.54 408.166 123.894 408.419 124.061 408.806C124.319 409.402 124.036 410.091 123.431 410.344C122.19 410.863 120.911 411.337 119.629 411.75C119.004 411.952 118.331 411.617 118.126 411.001C117.921 410.386 118.262 409.723 118.887 409.521C120.105 409.128 121.32 408.679 122.499 408.185C122.711 408.096 122.935 408.073 123.147 408.106ZM79.576 404.252C79.7389 404.277 79.8989 404.336 80.0457 404.431C81.1155 405.122 82.2306 405.777 83.3597 406.377C83.9386 406.685 84.1549 407.396 83.8424 407.966C83.5302 408.536 82.8075 408.749 82.2284 408.441C81.0393 407.81 79.8647 407.12 78.738 406.392C78.188 406.036 78.035 405.309 78.396 404.768C78.6607 404.371 79.1285 404.184 79.576 404.252ZM113.209 411.025C113.697 411.1 114.106 411.471 114.198 411.977C114.314 412.614 113.883 413.224 113.236 413.338C111.908 413.573 110.555 413.753 109.212 413.875C108.556 413.931 107.976 413.46 107.916 412.814C107.856 412.169 108.338 411.598 108.994 411.539C110.269 411.424 111.554 411.252 112.815 411.029C112.949 411.006 113.081 411.005 113.209 411.025ZM88.8378 408.861C88.9155 408.873 88.9934 408.892 89.07 408.92C90.2707 409.359 91.5067 409.752 92.7433 410.089C93.3774 410.263 93.7488 410.909 93.5732 411.533C93.3972 412.157 92.7408 412.526 92.1068 412.35C90.8058 411.995 89.5051 411.581 88.2415 411.12C87.6246 410.895 87.3099 410.22 87.5388 409.612C87.739 409.081 88.2899 408.777 88.8378 408.861ZM102.857 411.685C103.451 411.776 103.892 412.296 103.862 412.9C103.83 413.547 103.272 414.046 102.615 414.015C101.269 413.951 99.9083 413.829 98.57 413.652C98.5616 413.651 98.5533 413.65 98.5449 413.649C97.9061 413.551 97.4615 412.968 97.5479 412.334C97.6355 411.692 98.2351 411.241 98.8872 411.328C100.158 411.496 101.451 411.611 102.73 411.672C102.773 411.675 102.815 411.679 102.857 411.685Z" fill="#91B3FA"/>
<path d="M73.0271 399.128C73.2589 399.163 73.4826 399.266 73.6652 399.438C74.1094 399.855 74.5701 400.271 75.0339 400.673C75.5279 401.1 75.5761 401.842 75.1415 402.328C74.7071 402.814 73.9538 402.862 73.4602 402.433C72.9719 402.011 72.4878 401.574 72.02 401.135C71.5442 400.688 71.5264 399.945 71.9806 399.477C72.2608 399.188 72.6549 399.071 73.0271 399.128Z" fill="#91B3FA"/>
</g>
<g opacity="0.3">
<path d="M58.6331 366.299C59.2013 366.386 59.637 366.869 59.6398 367.453C59.6423 368.057 59.658 368.672 59.6861 369.28C59.7161 369.927 59.2077 370.475 58.5504 370.505C57.8904 370.534 57.3359 370.033 57.3058 369.387C57.2763 368.747 57.2599 368.1 57.2568 367.463C57.254 366.815 57.785 366.288 58.443 366.285C58.5078 366.285 58.5712 366.29 58.6331 366.299Z" fill="#91B3FA"/>
<path d="M112.125 320.924C112.666 321.007 113.208 321.099 113.751 321.201C114.397 321.322 114.822 321.936 114.699 322.573C114.576 323.209 113.948 323.628 113.306 323.506C112.053 323.271 110.794 323.087 109.548 322.957C108.893 322.888 108.419 322.311 108.488 321.667C108.558 321.023 109.144 320.556 109.799 320.624C110.569 320.704 111.352 320.805 112.125 320.924ZM119.835 322.772C119.901 322.782 119.967 322.798 120.032 322.819C121.292 323.236 122.549 323.709 123.766 324.227C124.37 324.483 124.648 325.174 124.387 325.768C124.126 326.363 123.424 326.638 122.821 326.38C121.665 325.888 120.471 325.439 119.274 325.043C118.65 324.837 118.314 324.172 118.524 323.558C118.711 323.008 119.272 322.686 119.835 322.772ZM103.534 320.402C104.089 320.487 104.521 320.95 104.54 321.523C104.56 322.171 104.044 322.712 103.386 322.733C102.128 322.772 100.855 322.864 99.6012 323.009C98.9474 323.083 98.3559 322.623 98.2797 321.98C98.2034 321.336 98.6714 320.754 99.3249 320.679C100.645 320.527 101.986 320.429 103.311 320.388C103.387 320.386 103.461 320.391 103.534 320.402ZM129.103 327.002C129.253 327.025 129.4 327.077 129.537 327.158C130.672 327.836 131.792 328.57 132.865 329.34C133.397 329.721 133.513 330.455 133.126 330.978C132.738 331.502 131.993 331.617 131.461 331.235C130.443 330.505 129.38 329.808 128.301 329.164C127.738 328.828 127.559 328.107 127.9 327.553C128.159 327.134 128.64 326.931 129.103 327.002ZM93.4301 321.83C93.8854 321.899 94.2777 322.227 94.4006 322.695C94.5657 323.322 94.1829 323.962 93.5459 324.124C92.3282 324.435 91.1066 324.801 89.9152 325.213C89.2944 325.427 88.6143 325.106 88.3964 324.494C88.1788 323.883 88.5051 323.214 89.1259 323C90.3801 322.566 91.6661 322.181 92.9485 321.854C93.1108 321.812 93.2743 321.806 93.4301 321.83ZM83.8893 325.405C84.2532 325.461 84.5859 325.682 84.7669 326.029C85.0671 326.605 84.8359 327.312 84.2504 327.608C83.1276 328.175 82.0159 328.795 80.9466 329.451C80.3886 329.794 79.6541 329.626 79.3055 329.076C78.9577 328.526 79.1283 327.803 79.6867 327.46C80.8123 326.77 81.9819 326.117 83.1636 325.521C83.3959 325.403 83.6493 325.368 83.8893 325.405ZM75.3673 330.944C75.6441 330.986 75.9067 331.124 76.1 331.353C76.5205 331.851 76.4511 332.59 75.945 333.004C74.9735 333.799 74.0255 334.642 73.1274 335.511C72.6584 335.965 71.9045 335.96 71.4427 335.497C70.9817 335.035 70.9879 334.293 71.4573 333.838C72.4026 332.924 73.4001 332.036 74.4224 331.2C74.696 330.977 75.0414 330.894 75.3673 330.944ZM68.2757 338.179C68.4676 338.209 68.6544 338.284 68.819 338.409C69.34 338.805 69.4364 339.541 69.0346 340.054C68.2634 341.038 67.5265 342.065 66.8441 343.108C66.4877 343.652 65.7495 343.809 65.1975 343.458C64.6443 343.107 64.485 342.381 64.8414 341.837C65.5602 340.739 66.3363 339.657 67.148 338.622C67.4232 338.271 67.8603 338.115 68.2757 338.179ZM62.9684 346.774C63.0762 346.791 63.1836 346.822 63.2875 346.87C63.884 347.143 64.1432 347.84 63.866 348.428C63.3357 349.552 62.847 350.713 62.4137 351.88C62.1877 352.488 61.5019 352.8 60.8858 352.578C60.2678 352.356 59.9501 351.683 60.1759 351.074C60.6321 349.846 61.1464 348.623 61.705 347.44C61.9341 346.955 62.4572 346.696 62.9684 346.774ZM59.7112 356.301C59.7354 356.304 59.7595 356.309 59.7837 356.314C60.4264 356.453 60.8334 357.078 60.6927 357.71C60.4941 358.603 60.3213 359.513 60.1788 360.415C60.1271 360.741 60.0796 361.068 60.0352 361.393C59.9479 362.036 59.3487 362.487 58.6966 362.401C58.0347 362.327 57.5865 361.725 57.6734 361.083C57.7199 360.74 57.7702 360.398 57.8245 360.054C57.9745 359.106 58.1565 358.148 58.3653 357.209C58.5007 356.6 59.094 356.206 59.7112 356.301Z" fill="#91B3FA"/>
<path d="M137.217 333.157C137.451 333.193 137.677 333.298 137.86 333.471C138.324 333.912 138.788 334.371 139.238 334.835C139.693 335.303 139.675 336.045 139.2 336.493C138.724 336.94 137.97 336.924 137.515 336.455C137.088 336.014 136.647 335.578 136.206 335.16C135.733 334.711 135.719 333.968 136.175 333.502C136.456 333.216 136.847 333.1 137.217 333.157Z" fill="#91B3FA"/>
</g>
<path d="M133.503 346.355C133.383 346.153 133.146 346.048 132.913 346.094L126.268 347.406C124.088 345.148 121.526 343.216 118.646 341.719L118.127 335.072C118.109 334.839 117.942 334.643 117.713 334.584L109.848 332.562C109.618 332.502 109.375 332.593 109.243 332.788L105.49 338.337C102.234 338.256 99.0392 338.708 96.0157 339.629L90.871 335.287C90.6907 335.134 90.4321 335.112 90.2272 335.23L83.2135 339.275C83.0085 339.393 82.9023 339.626 82.949 339.856L84.2814 346.397C81.9874 348.543 80.0248 351.065 78.5049 353.901L71.7523 354.412C71.5154 354.429 71.3162 354.593 71.2562 354.819L69.2022 362.562C69.1422 362.788 69.2346 363.027 69.4323 363.157L75.0693 366.852C74.9869 370.058 75.4463 373.202 76.3812 376.179L71.9701 381.243C71.8157 381.421 71.7923 381.676 71.9124 381.877L76.0214 388.782C76.1415 388.984 76.3784 389.088 76.6112 389.042L83.2557 387.73C85.436 389.989 87.998 391.921 90.8785 393.417L91.3968 400.065C91.415 400.298 91.5814 400.494 91.8112 400.553L99.6762 402.575C99.906 402.634 100.149 402.543 100.28 402.348L104.034 396.799C107.29 396.88 110.484 396.428 113.508 395.507L118.653 399.85C118.833 400.002 119.092 400.025 119.297 399.907L126.31 395.861C126.515 395.743 126.621 395.51 126.575 395.281L125.242 388.739C127.536 386.593 129.499 384.071 131.019 381.235L137.771 380.725C138.008 380.707 138.207 380.543 138.267 380.317L140.321 372.574C140.381 372.348 140.289 372.109 140.091 371.98L134.454 368.284C134.537 365.079 134.077 361.934 133.142 358.958L137.553 353.893C137.708 353.716 137.731 353.461 137.611 353.259L133.503 346.355Z" fill="#91B3FA"/>
<path d="M106.025 359.62C109.961 360.224 112.966 363.598 112.933 367.633C112.896 372.069 109.201 375.647 104.696 375.611C102.513 375.594 100.468 374.741 98.9379 373.209C97.4072 371.678 96.574 369.651 96.592 367.503C96.6288 363.067 100.324 359.488 104.829 359.524C105.235 359.528 105.635 359.56 106.025 359.62ZM103.785 373.661C104.089 373.707 104.398 373.733 104.711 373.735C108.165 373.763 110.999 371.019 111.027 367.618C111.055 364.218 108.269 361.427 104.813 361.401C101.359 361.373 98.5261 364.117 98.4977 367.517C98.4842 369.165 99.1228 370.719 100.296 371.893C101.251 372.848 102.465 373.458 103.785 373.661Z" fill="#BDD0FB"/>
<path d="M107.676 348.115C108.352 348.219 109.026 348.357 109.697 348.529C109.909 348.583 110.119 348.641 110.328 348.702C111.36 349.002 112.367 349.383 113.331 349.839C113.345 349.845 113.358 349.851 113.371 349.857C113.408 349.875 113.445 349.893 113.482 349.911C113.555 349.946 113.627 349.981 113.699 350.017C113.888 350.111 113.986 350.312 113.955 350.507C113.948 350.555 113.932 350.602 113.909 350.647C113.791 350.879 113.504 350.97 113.269 350.854C112.06 350.253 110.778 349.776 109.457 349.437C102.895 347.749 96.2252 349.642 91.5874 353.877C89.0076 356.232 87.0571 359.313 86.1043 362.905C85.9371 363.535 85.8035 364.169 85.7032 364.804C85.0281 369.075 85.8587 373.409 88.1084 377.189C90.6923 381.531 94.8395 384.623 99.7854 385.894C110 388.519 120.472 382.477 123.138 372.426C123.302 371.806 123.434 371.18 123.533 370.552C123.964 367.827 123.784 365.04 122.997 362.391C122.976 362.322 122.973 362.253 122.983 362.187C123.011 362.013 123.137 361.862 123.32 361.809C123.573 361.737 123.838 361.878 123.911 362.128C124.738 364.909 124.927 367.835 124.475 370.696C124.371 371.356 124.232 372.012 124.06 372.663C121.261 383.215 110.26 389.557 99.5445 386.803C94.3521 385.468 89.9987 382.222 87.286 377.664C84.9241 373.695 84.0521 369.145 84.7607 364.661C84.8662 363.995 85.0065 363.33 85.1816 362.669C86.5377 357.557 89.8345 353.271 94.4649 350.6C98.497 348.275 103.12 347.417 107.676 348.115Z" fill="#BDD0FB"/>
<g opacity="0.3">
<path d="M196.379 343.911C196.693 343.959 196.951 344.205 196.995 344.532C197.076 345.142 197.14 345.762 197.185 346.376C197.213 346.775 196.909 347.121 196.503 347.15C196.097 347.18 195.746 346.878 195.717 346.479C195.674 345.894 195.613 345.303 195.536 344.721C195.482 344.324 195.766 343.961 196.169 343.908C196.24 343.899 196.311 343.9 196.379 343.911Z" fill="#91B3FA"/>
<path d="M196.6 349.478C196.968 349.535 197.241 349.858 197.221 350.232C197.164 351.289 197.051 352.356 196.886 353.401C196.851 353.622 196.813 353.842 196.774 354.063C196.702 354.457 196.302 354.701 195.921 354.65C195.521 354.58 195.254 354.204 195.324 353.811C195.363 353.599 195.399 353.389 195.432 353.178C195.589 352.181 195.697 351.164 195.751 350.155C195.773 349.756 196.119 349.449 196.525 349.47C196.55 349.472 196.575 349.474 196.6 349.478ZM195.265 356.884C195.299 356.889 195.334 356.896 195.368 356.907C195.757 357.024 195.975 357.429 195.856 357.812C195.474 359.039 195.012 360.254 194.481 361.422C194.315 361.787 193.878 361.949 193.509 361.787C193.138 361.624 192.972 361.196 193.138 360.831C193.644 359.716 194.085 358.558 194.449 357.387C194.558 357.039 194.909 356.829 195.265 356.884ZM192.146 363.749C192.238 363.763 192.329 363.795 192.414 363.845C192.761 364.053 192.872 364.498 192.661 364.841C191.986 365.936 191.234 367.003 190.426 368.009C190.173 368.324 189.712 368.377 189.392 368.128C189.073 367.88 189.019 367.424 189.271 367.111C190.042 366.151 190.759 365.135 191.403 364.089C191.562 363.831 191.86 363.705 192.146 363.749ZM187.407 369.65C187.558 369.673 187.702 369.742 187.817 369.857C188.102 370.142 188.099 370.601 187.81 370.881C186.881 371.783 185.887 372.635 184.856 373.415C184.533 373.658 184.071 373.597 183.824 373.281C183.576 372.964 183.637 372.509 183.96 372.265C184.943 371.522 185.891 370.709 186.777 369.85C186.949 369.682 187.184 369.616 187.407 369.65ZM181.348 374.232C181.559 374.264 181.753 374.386 181.87 374.581C182.076 374.925 181.959 375.369 181.609 375.572C180.486 376.223 179.313 376.812 178.12 377.322C177.747 377.482 177.314 377.314 177.152 376.947C176.99 376.579 177.161 376.152 177.533 375.993C178.671 375.506 179.791 374.945 180.862 374.324C181.014 374.235 181.186 374.207 181.348 374.232ZM174.344 377.228C174.617 377.27 174.854 377.461 174.937 377.739C175.052 378.122 174.829 378.525 174.44 378.638C173.191 379.001 171.906 379.29 170.624 379.497C170.221 379.561 169.844 379.294 169.778 378.899C169.712 378.505 169.984 378.132 170.385 378.068C171.609 377.87 172.832 377.594 174.023 377.249C174.131 377.217 174.24 377.212 174.344 377.228ZM166.811 378.446C167.152 378.498 167.419 378.782 167.433 379.133C167.448 379.533 167.132 379.87 166.726 379.885C165.428 379.935 164.111 379.905 162.81 379.796C162.405 379.756 162.104 379.411 162.139 379.013C162.174 378.614 162.53 378.319 162.934 378.352C164.176 378.457 165.432 378.485 166.669 378.438C166.718 378.436 166.765 378.439 166.811 378.446ZM155.509 376.807C155.551 376.813 155.593 376.823 155.635 376.837C156.65 377.18 157.701 377.473 158.761 377.71C158.921 377.747 159.079 377.781 159.237 377.813C159.635 377.896 159.89 378.279 159.806 378.671C159.724 379.063 159.329 379.325 158.936 379.232C158.767 379.197 158.6 379.161 158.431 379.122C157.325 378.875 156.222 378.567 155.158 378.207C154.773 378.078 154.569 377.666 154.7 377.287C154.818 376.95 155.163 376.753 155.509 376.807Z" fill="#91B3FA"/>
</g>
<g opacity="0.3">
<path d="M169.941 317.641C170.338 317.702 170.613 318.066 170.556 318.459C170.499 318.855 170.127 319.13 169.724 319.074C168.513 318.904 167.281 318.805 166.063 318.781C165.659 318.769 165.333 318.442 165.342 318.042C165.35 317.641 165.686 317.324 166.093 317.332C167.37 317.358 168.662 317.461 169.932 317.639C169.935 317.64 169.938 317.64 169.941 317.641ZM173.629 318.383C173.656 318.387 173.681 318.393 173.708 318.399C174.945 318.725 176.175 319.129 177.363 319.598C177.74 319.747 177.924 320.168 177.772 320.539C177.621 320.912 177.191 321.09 176.815 320.943C175.682 320.495 174.508 320.11 173.327 319.799C172.935 319.695 172.702 319.298 172.807 318.912C172.905 318.551 173.263 318.327 173.629 318.383ZM162.43 317.492C162.752 317.541 163.013 317.799 163.048 318.134C163.09 318.531 162.796 318.887 162.392 318.928C161.174 319.052 159.954 319.249 158.765 319.516C158.368 319.603 157.975 319.36 157.885 318.97C157.794 318.58 158.043 318.192 158.439 318.103C159.685 317.824 160.964 317.617 162.241 317.487C162.306 317.481 162.369 317.482 162.43 317.492ZM180.604 321.143C180.687 321.156 180.769 321.183 180.847 321.225C181.969 321.834 183.064 322.519 184.102 323.258C184.431 323.493 184.505 323.946 184.266 324.27C184.028 324.593 183.568 324.666 183.239 324.432C182.25 323.727 181.206 323.075 180.136 322.493C179.78 322.3 179.65 321.859 179.847 321.509C180 321.236 180.308 321.098 180.604 321.143ZM155.105 319.134C155.362 319.174 155.591 319.347 155.685 319.605C155.823 319.982 155.624 320.397 155.242 320.532C154.093 320.939 152.957 321.419 151.866 321.961C151.503 322.141 151.061 321.997 150.878 321.639C150.695 321.282 150.841 320.846 151.204 320.666C152.348 320.099 153.539 319.595 154.743 319.169C154.864 319.126 154.988 319.116 155.105 319.134ZM148.394 322.459C148.591 322.489 148.775 322.598 148.894 322.773C149.119 323.106 149.027 323.556 148.689 323.778C147.67 324.446 146.683 325.18 145.757 325.96C145.448 326.22 144.983 326.184 144.719 325.88C144.455 325.576 144.491 325.119 144.8 324.86C145.771 324.041 146.806 323.271 147.873 322.572C148.033 322.467 148.219 322.432 148.394 322.459ZM142.685 327.271C142.824 327.292 142.957 327.352 143.068 327.453C143.368 327.723 143.388 328.182 143.114 328.476C142.287 329.364 141.508 330.31 140.799 331.287C140.563 331.612 140.104 331.688 139.773 331.456C139.442 331.223 139.366 330.771 139.602 330.445C140.345 329.421 141.161 328.428 142.029 327.497C142.202 327.311 142.45 327.235 142.685 327.271Z" fill="#91B3FA"/>
<path d="M186.72 325.503C186.86 325.525 186.995 325.587 187.107 325.689C187.568 326.111 188.019 326.549 188.446 326.989C188.727 327.279 188.716 327.738 188.422 328.014C188.128 328.289 187.663 328.279 187.382 327.99C186.974 327.57 186.544 327.153 186.105 326.749C185.807 326.477 185.79 326.018 186.067 325.726C186.24 325.543 186.487 325.468 186.72 325.503Z" fill="#91B3FA"/>
</g>
<path d="M184.653 334.657C184.572 334.522 184.414 334.452 184.258 334.483L179.812 335.361C178.353 333.85 176.639 332.557 174.711 331.556L174.364 327.107C174.352 326.951 174.241 326.82 174.087 326.78L168.824 325.427C168.67 325.388 168.508 325.449 168.42 325.579L165.908 329.292C163.729 329.238 161.592 329.541 159.568 330.156L156.126 327.251C156.005 327.149 155.832 327.133 155.695 327.213L151.002 329.919C150.864 329.998 150.793 330.154 150.825 330.308L151.716 334.685C150.181 336.121 148.868 337.809 147.851 339.706L143.332 340.048C143.174 340.06 143.04 340.169 143 340.321L141.626 345.502C141.586 345.653 141.647 345.813 141.78 345.9L145.552 348.373C145.497 350.517 145.804 352.622 146.43 354.614L143.478 358.003C143.375 358.121 143.359 358.292 143.439 358.427L146.189 363.047C146.269 363.182 146.428 363.252 146.584 363.221L151.03 362.343C152.489 363.855 154.203 365.147 156.131 366.149L156.478 370.597C156.49 370.753 156.601 370.884 156.755 370.924L162.018 372.277C162.172 372.316 162.334 372.255 162.422 372.125L164.934 368.412C167.113 368.466 169.25 368.163 171.274 367.548L174.716 370.453C174.837 370.555 175.01 370.57 175.147 370.491L179.84 367.785C179.977 367.705 180.048 367.549 180.017 367.396L179.126 363.019C180.66 361.583 181.974 359.895 182.991 357.998L187.509 357.656C187.668 357.644 187.801 357.534 187.841 357.383L189.216 352.202C189.256 352.051 189.194 351.891 189.062 351.804L185.29 349.331C185.345 347.186 185.038 345.082 184.412 343.09L187.364 339.701C187.467 339.583 187.483 339.412 187.402 339.277L184.653 334.657Z" fill="#91B3FA"/>
<path d="M166.289 343.439C167.462 343.619 168.541 344.162 169.389 345.01C170.431 346.053 170.999 347.434 170.986 348.897C170.962 351.917 168.445 354.355 165.376 354.331C162.303 354.301 159.83 351.828 159.856 348.807C159.867 347.344 160.458 345.972 161.517 344.946C162.577 343.92 163.98 343.361 165.467 343.373C165.745 343.376 166.02 343.398 166.289 343.439ZM164.789 352.834C164.984 352.864 165.184 352.881 165.388 352.883C167.645 352.9 169.496 351.107 169.515 348.885C169.524 347.809 169.107 346.793 168.34 346.026C167.573 345.258 166.548 344.832 165.454 344.822C164.361 344.813 163.329 345.224 162.55 345.979C161.77 346.734 161.336 347.743 161.327 348.82C161.31 350.841 162.817 352.532 164.789 352.834Z" fill="#BDD0FB"/>
<path d="M167.449 335.433C167.909 335.503 168.369 335.597 168.829 335.715C169.742 335.95 170.632 336.276 171.475 336.686C171.513 336.704 171.551 336.723 171.589 336.742C171.881 336.887 172.032 337.197 171.984 337.499C171.973 337.572 171.949 337.645 171.913 337.715C171.73 338.072 171.288 338.214 170.925 338.035C170.141 337.644 169.311 337.336 168.457 337.117H168.457C168.41 337.105 168.363 337.094 168.317 337.082C166.292 336.582 164.218 336.598 162.249 337.098C161.181 337.369 160.142 337.784 159.161 338.339C159.153 338.343 159.145 338.348 159.137 338.352C159.112 338.367 159.088 338.38 159.064 338.394C156.209 340.041 154.175 342.684 153.339 345.836C153.231 346.244 153.144 346.654 153.079 347.065C152.642 349.83 153.18 352.636 154.637 355.084C156.31 357.894 158.994 359.895 162.196 360.718C165.396 361.54 168.734 361.088 171.589 359.441C174.445 357.794 176.478 355.151 177.314 351.999C177.42 351.598 177.506 351.193 177.57 350.786C177.849 349.022 177.732 347.218 177.222 345.503C177.191 345.398 177.185 345.291 177.202 345.189C177.244 344.92 177.439 344.686 177.722 344.605C178.112 344.494 178.521 344.712 178.635 345.097C179.205 347.016 179.336 349.035 179.024 351.008C178.952 351.464 178.857 351.916 178.738 352.365C177.802 355.892 175.528 358.849 172.333 360.692C169.138 362.533 165.408 363.044 161.824 362.12C158.242 361.2 155.238 358.961 153.367 355.815C151.737 353.078 151.136 349.939 151.625 346.845C151.698 346.386 151.794 345.927 151.915 345.471C153.727 338.643 160.513 334.37 167.449 335.433Z" fill="#BDD0FB"/>
<defs>
<linearGradient id="paint0_linear_518_275" x1="566.704" y1="635.16" x2="133.59" y2="88.7625" gradientUnits="userSpaceOnUse">
<stop stop-color="#DAE3FE"/>
<stop offset="1" stop-color="#E9EFFD"/>
</linearGradient>
<linearGradient id="paint1_linear_518_275" x1="277.606" y1="293.384" x2="139.864" y2="691.429" gradientUnits="userSpaceOnUse">
<stop stop-color="#100720"/>
<stop offset="1" stop-color="#1A0F91"/>
</linearGradient>
<linearGradient id="paint2_linear_518_275" x1="485.067" y1="-113.736" x2="145.356" y2="361.352" gradientUnits="userSpaceOnUse">
<stop stop-color="#100720"/>
<stop offset="1" stop-color="#120C4F"/>
</linearGradient>
<linearGradient id="paint3_linear_518_275" x1="12.6976" y1="227.115" x2="440.789" y2="227.115" gradientUnits="userSpaceOnUse">
<stop stop-color="#F88BD2" stop-opacity="0.74"/>
<stop offset="1" stop-color="#FA2FB5"/>
</linearGradient>
<linearGradient id="paint4_linear_518_275" x1="316.264" y1="248.154" x2="233.067" y2="458.224" gradientUnits="userSpaceOnUse">
<stop stop-color="#100720"/>
<stop offset="1" stop-color="#1A0F91"/>
</linearGradient>
<linearGradient id="paint5_linear_518_275" x1="296.416" y1="-119.409" x2="246.611" y2="70.9119" gradientUnits="userSpaceOnUse">
<stop stop-color="#DD7DCA"/>
<stop offset="1" stop-color="#FA2FB5"/>
</linearGradient>
<linearGradient id="paint6_linear_518_275" x1="427.361" y1="115.812" x2="344.305" y2="483.061" gradientUnits="userSpaceOnUse">
<stop stop-color="#100720"/>
<stop offset="1" stop-color="#18196D"/>
</linearGradient>
<linearGradient id="paint7_linear_518_275" x1="291.217" y1="342.725" x2="349.902" y2="376.751" gradientUnits="userSpaceOnUse">
<stop stop-color="#FEBBBA"/>
<stop offset="1" stop-color="#FF928E"/>
</linearGradient>
<linearGradient id="paint8_linear_518_275" x1="298.949" y1="375.954" x2="324.884" y2="439.717" gradientUnits="userSpaceOnUse">
<stop stop-color="#09005D"/>
<stop offset="1" stop-color="#1A0F91"/>
</linearGradient>
<linearGradient id="paint9_linear_518_275" x1="296.939" y1="351.013" x2="96.3757" y2="223.475" gradientUnits="userSpaceOnUse">
<stop stop-color="#FEBBBA"/>
<stop offset="1" stop-color="#FF928E"/>
</linearGradient>
<linearGradient id="paint10_linear_518_275" x1="309.281" y1="392.515" x2="347.582" y2="449.919" gradientUnits="userSpaceOnUse">
<stop stop-color="#09005D"/>
<stop offset="1" stop-color="#1A0F91"/>
</linearGradient>
<linearGradient id="paint11_linear_518_275" x1="960.614" y1="2085.92" x2="903.639" y2="1909.88" gradientUnits="userSpaceOnUse">
<stop stop-color="#4F52FF"/>
<stop offset="1" stop-color="#4042E2"/>
</linearGradient>
<linearGradient id="paint12_linear_518_275" x1="348.07" y1="227.123" x2="385.213" y2="270.681" gradientUnits="userSpaceOnUse">
<stop stop-color="#09005D"/>
<stop offset="1" stop-color="#1A0F91"/>
</linearGradient>
<linearGradient id="paint13_linear_518_275" x1="500.928" y1="107.893" x2="435.34" y2="224.182" gradientUnits="userSpaceOnUse">
<stop stop-color="#4F52FF"/>
<stop offset="1" stop-color="#4042E2"/>
</linearGradient>
<linearGradient id="paint14_linear_518_275" x1="394.806" y1="323.569" x2="453.722" y2="323.569" gradientUnits="userSpaceOnUse">
<stop stop-color="#FEBBBA"/>
<stop offset="1" stop-color="#FF928E"/>
</linearGradient>
<linearGradient id="paint15_linear_518_275" x1="370.826" y1="295.848" x2="372.146" y2="274.954" gradientUnits="userSpaceOnUse">
<stop stop-color="#FEBBBA"/>
<stop offset="1" stop-color="#FF928E"/>
</linearGradient>
<linearGradient id="paint16_linear_518_275" x1="362.166" y1="275.992" x2="375.785" y2="223.169" gradientUnits="userSpaceOnUse">
<stop stop-color="#FEBBBA"/>
<stop offset="1" stop-color="#FF928E"/>
</linearGradient>
<linearGradient id="paint17_linear_518_275" x1="357.174" y1="234.513" x2="378.458" y2="263.847" gradientUnits="userSpaceOnUse">
<stop stop-color="#09005D"/>
<stop offset="1" stop-color="#1A0F91"/>
</linearGradient>
<linearGradient id="paint18_linear_518_275" x1="368.571" y1="277.642" x2="382.19" y2="224.82" gradientUnits="userSpaceOnUse">
<stop stop-color="#FEBBBA"/>
<stop offset="1" stop-color="#FF928E"/>
</linearGradient>
<linearGradient id="paint19_linear_518_275" x1="392.104" y1="322.9" x2="361.831" y2="332.985" gradientUnits="userSpaceOnUse">
<stop stop-color="#09005D"/>
<stop offset="1" stop-color="#1A0F91"/>
</linearGradient>
<linearGradient id="paint20_linear_518_275" x1="312.111" y1="318.015" x2="589.25" y2="294.33" gradientUnits="userSpaceOnUse">
<stop stop-color="#09005D"/>
<stop offset="1" stop-color="#1A0F91"/>
</linearGradient>
<linearGradient id="paint21_linear_518_275" x1="337.169" y1="308.964" x2="327.461" y2="323.814" gradientUnits="userSpaceOnUse">
<stop stop-color="#4F52FF"/>
<stop offset="1" stop-color="#4042E2"/>
</linearGradient>
<linearGradient id="paint22_linear_518_275" x1="54.2059" y1="34.3529" x2="82.167" y2="34.3529" gradientUnits="userSpaceOnUse">
<stop stop-color="#100720"/>
<stop offset="1" stop-color="#1A0F91"/>
</linearGradient>
<linearGradient id="paint23_linear_518_275" x1="74.8838" y1="34.9169" x2="81.9643" y2="84.1284" gradientUnits="userSpaceOnUse">
<stop stop-color="#FEBBBA"/>
<stop offset="1" stop-color="#FF928E"/>
</linearGradient>
<linearGradient id="paint24_linear_518_275" x1="9.19467" y1="52.1795" x2="42.1724" y2="52.1795" gradientUnits="userSpaceOnUse">
<stop stop-color="#09005D"/>
<stop offset="1" stop-color="#1A0F91"/>
</linearGradient>
<linearGradient id="paint25_linear_518_275" x1="38.0971" y1="40.2094" x2="45.1777" y2="89.4214" gradientUnits="userSpaceOnUse">
<stop stop-color="#FEBBBA"/>
<stop offset="1" stop-color="#FF928E"/>
</linearGradient>
<linearGradient id="paint26_linear_518_275" x1="210.763" y1="58.0785" x2="222.719" y2="58.0785" gradientUnits="userSpaceOnUse">
<stop stop-color="#FEBBBA"/>
<stop offset="1" stop-color="#FF928E"/>
</linearGradient>
<linearGradient id="paint27_linear_518_275" x1="211.734" y1="76.9273" x2="225.696" y2="76.9273" gradientUnits="userSpaceOnUse">
<stop stop-color="#FEBBBA"/>
<stop offset="1" stop-color="#FF928E"/>
</linearGradient>
<linearGradient id="paint28_linear_518_275" x1="188.717" y1="57.0978" x2="208.113" y2="57.0978" gradientUnits="userSpaceOnUse">
<stop stop-color="#FEBBBA"/>
<stop offset="1" stop-color="#FF928E"/>
</linearGradient>
<linearGradient id="paint29_linear_518_275" x1="250.932" y1="95.2239" x2="199.578" y2="138.575" gradientUnits="userSpaceOnUse">
<stop stop-color="#FEBBBA"/>
<stop offset="1" stop-color="#FF928E"/>
</linearGradient>
<linearGradient id="paint30_linear_518_275" x1="213.376" y1="55.9074" x2="206.651" y2="33.3758" gradientUnits="userSpaceOnUse">
<stop stop-color="#FEBBBA"/>
<stop offset="1" stop-color="#FF928E"/>
</linearGradient>
<linearGradient id="paint31_linear_518_275" x1="207.13" y1="14.6428" x2="213.373" y2="50.8083" gradientUnits="userSpaceOnUse">
<stop stop-color="#100720"/>
<stop offset="1" stop-color="#100720"/>
</linearGradient>
<linearGradient id="paint32_linear_518_275" x1="206.207" y1="58.0471" x2="199.482" y2="35.5157" gradientUnits="userSpaceOnUse">
<stop stop-color="#FEBBBA"/>
<stop offset="1" stop-color="#FF928E"/>
</linearGradient>
<linearGradient id="paint33_linear_518_275" x1="239.799" y1="82.0358" x2="188.445" y2="125.387" gradientUnits="userSpaceOnUse">
<stop stop-color="#FEBBBA"/>
<stop offset="1" stop-color="#FF928E"/>
</linearGradient>
<linearGradient id="paint34_linear_518_275" x1="200.416" y1="98.001" x2="239.878" y2="111.148" gradientUnits="userSpaceOnUse">
<stop stop-color="#09005D"/>
<stop offset="1" stop-color="#1A0F91"/>
</linearGradient>
<linearGradient id="paint35_linear_518_275" x1="254.792" y1="72.4505" x2="282.828" y2="102.551" gradientUnits="userSpaceOnUse">
<stop stop-color="#100720"/>
<stop offset="1" stop-color="#1A0F91"/>
</linearGradient>
<linearGradient id="paint36_linear_518_275" x1="99.9894" y1="192.494" x2="367.948" y2="192.494" gradientUnits="userSpaceOnUse">
<stop stop-color="#100720"/>
<stop offset="1" stop-color="#3335B6"/>
</linearGradient>
<linearGradient id="paint37_linear_518_275" x1="149.646" y1="256.912" x2="312.079" y2="256.912" gradientUnits="userSpaceOnUse">
<stop stop-color="#100720"/>
<stop offset="1" stop-color="#202188"/>
</linearGradient>
<linearGradient id="paint38_linear_518_275" x1="109.678" y1="240.65" x2="133.61" y2="240.65" gradientUnits="userSpaceOnUse">
<stop stop-color="#422D66"/>
<stop offset="1" stop-color="#100720"/>
</linearGradient>
<linearGradient id="paint39_linear_518_275" x1="119.954" y1="202.237" x2="233.969" y2="202.237" gradientUnits="userSpaceOnUse">
<stop stop-color="#100720"/>
<stop offset="1" stop-color="#4042E2"/>
</linearGradient>
</defs>
</svg>
