<svg width="12" height="17" viewBox="0 0 12 17" fill="none" xmlns="http://www.w3.org/2000/svg">
<path d="M5.62963 0.666748C4.13656 0.666748 2.70464 1.25675 1.64888 2.30695C0.59312 3.35715 0 4.78154 0 6.26675C0 8.17075 0.957037 9.84275 2.4127 10.8587V12.6667C2.4127 12.8789 2.49743 13.0824 2.64825 13.2324C2.79908 13.3825 3.00364 13.4667 3.21693 13.4667H8.04233C8.25563 13.4667 8.46019 13.3825 8.61101 13.2324C8.76183 13.0824 8.84656 12.8789 8.84656 12.6667V10.8587C10.3022 9.84275 11.2593 8.17075 11.2593 6.26675C11.2593 4.78154 10.6661 3.35715 9.61038 2.30695C8.55462 1.25675 7.1227 0.666748 5.62963 0.666748ZM3.21693 15.8667C3.21693 16.0789 3.30166 16.2824 3.45249 16.4324C3.60331 16.5825 3.80787 16.6667 4.02116 16.6667H7.2381C7.45139 16.6667 7.65595 16.5825 7.80678 16.4324C7.9576 16.2824 8.04233 16.0789 8.04233 15.8667V15.0667H3.21693V15.8667Z" fill="white"/>
</svg>
