<svg width="101" height="18" viewBox="0 0 101 18" fill="none" xmlns="http://www.w3.org/2000/svg">
<path d="M4.592 3.44V6.848H10.088V10.016H4.592V13.712H10.808V17H0.488V0.151999H10.808V3.44H4.592ZM23.9124 6.872V10.28H13.3524V6.872H23.9124ZM26.8182 10.28C26.8182 8.904 27.0742 7.696 27.5862 6.656C28.1142 5.616 28.8262 4.816 29.7222 4.256C30.6183 3.696 31.6183 3.416 32.7223 3.416C33.6662 3.416 34.4902 3.608 35.1942 3.992C35.9143 4.376 36.4663 4.88 36.8503 5.504V3.608H40.9543V17H36.8503V15.104C36.4503 15.728 35.8903 16.232 35.1703 16.616C34.4663 17 33.6423 17.192 32.6982 17.192C31.6102 17.192 30.6183 16.912 29.7222 16.352C28.8262 15.776 28.1142 14.968 27.5862 13.928C27.0742 12.872 26.8182 11.656 26.8182 10.28ZM36.8503 10.304C36.8503 9.28 36.5623 8.472 35.9863 7.88C35.4263 7.288 34.7383 6.992 33.9222 6.992C33.1062 6.992 32.4102 7.288 31.8343 7.88C31.2743 8.456 30.9942 9.256 30.9942 10.28C30.9942 11.304 31.2743 12.12 31.8343 12.728C32.4102 13.32 33.1062 13.616 33.9222 13.616C34.7383 13.616 35.4263 13.32 35.9863 12.728C36.5623 12.136 36.8503 11.328 36.8503 10.304ZM52.2033 3.464C53.7713 3.464 55.0193 3.976 55.9473 5C56.8913 6.008 57.3633 7.4 57.3633 9.176V17H53.2833V9.728C53.2833 8.832 53.0513 8.136 52.5873 7.64C52.1233 7.144 51.4993 6.896 50.7153 6.896C49.9313 6.896 49.3073 7.144 48.8433 7.64C48.3793 8.136 48.1473 8.832 48.1473 9.728V17H44.0433V3.608H48.1473V5.384C48.5633 4.792 49.1233 4.328 49.8273 3.992C50.5313 3.64 51.3233 3.464 52.2033 3.464ZM59.5192 10.28C59.5192 8.904 59.7752 7.696 60.2872 6.656C60.8152 5.616 61.5272 4.816 62.4232 4.256C63.3192 3.696 64.3192 3.416 65.4232 3.416C66.3672 3.416 67.1912 3.608 67.8952 3.992C68.6152 4.376 69.1672 4.88 69.5512 5.504V3.608H73.6552V17H69.5512V15.104C69.1512 15.728 68.5912 16.232 67.8712 16.616C67.1672 17 66.3432 17.192 65.3992 17.192C64.3112 17.192 63.3192 16.912 62.4232 16.352C61.5272 15.776 60.8152 14.968 60.2872 13.928C59.7752 12.872 59.5192 11.656 59.5192 10.28ZM69.5512 10.304C69.5512 9.28 69.2632 8.472 68.6872 7.88C68.1272 7.288 67.4392 6.992 66.6232 6.992C65.8072 6.992 65.1112 7.288 64.5352 7.88C63.9752 8.456 63.6952 9.256 63.6952 10.28C63.6952 11.304 63.9752 12.12 64.5352 12.728C65.1112 13.32 65.8072 13.616 66.6232 13.616C67.4392 13.616 68.1272 13.32 68.6872 12.728C69.2632 12.136 69.5512 11.328 69.5512 10.304ZM80.8482 5.84C81.3282 5.104 81.9282 4.528 82.6482 4.112C83.3682 3.68 84.1682 3.464 85.0482 3.464V7.808H83.9202C82.8962 7.808 82.1282 8.032 81.6162 8.48C81.1042 8.912 80.8482 9.68 80.8482 10.784V17H76.7442V3.608H80.8482V5.84ZM93.2259 17.192C91.9139 17.192 90.7299 16.912 89.6739 16.352C88.6339 15.792 87.8099 14.992 87.2019 13.952C86.6099 12.912 86.3139 11.696 86.3139 10.304C86.3139 8.928 86.6179 7.72 87.2259 6.68C87.8339 5.624 88.6659 4.816 89.7219 4.256C90.7779 3.696 91.9619 3.416 93.2739 3.416C94.5859 3.416 95.7699 3.696 96.8259 4.256C97.8819 4.816 98.7139 5.624 99.3219 6.68C99.9299 7.72 100.234 8.928 100.234 10.304C100.234 11.68 99.9219 12.896 99.2979 13.952C98.6899 14.992 97.8499 15.792 96.7779 16.352C95.7219 16.912 94.5379 17.192 93.2259 17.192ZM93.2259 13.64C94.0099 13.64 94.6739 13.352 95.2179 12.776C95.7779 12.2 96.0579 11.376 96.0579 10.304C96.0579 9.232 95.7859 8.408 95.2419 7.832C94.7139 7.256 94.0579 6.968 93.2739 6.968C92.4739 6.968 91.8099 7.256 91.2819 7.832C90.7539 8.392 90.4899 9.216 90.4899 10.304C90.4899 11.376 90.7459 12.2 91.2579 12.776C91.7859 13.352 92.4419 13.64 93.2259 13.64Z" fill="white"/>
</svg>
